<svg width="130" height="130" viewBox="0 0 130 130" fill="none" xmlns="http://www.w3.org/2000/svg">
<path d="M119.833 65C119.833 95.2798 95.2922 119.82 65.0124 119.82C34.7326 119.82 10.1921 95.2798 10.1921 65C10.1921 34.7202 34.7326 10.1797 65.0124 10.1797C95.2798 10.1673 119.833 34.7202 119.833 65Z" fill="#F8F8FB"/>
<path d="M65.0001 130C29.1542 130 0 100.846 0 65.0002C0 29.1542 29.1542 0 65.0001 0C100.846 0 130 29.1666 130 65.0002C130 100.834 100.846 130 65.0001 130ZM65.0001 2.07794C30.3045 2.07794 2.07802 30.3046 2.07802 65.0002C2.07802 99.6957 30.3045 127.922 65.0001 127.922C99.6957 127.922 127.922 99.6957 127.922 65.0002C127.922 30.3046 99.6957 2.07794 65.0001 2.07794Z" fill="#F8F8FB"/>
<path d="M35.9199 47.4728C37.6145 48.3511 40.3481 48.351 41.6345 48.351H90.6041C91.9771 48.351 93.2388 48.7842 94.2778 49.5139V43.9602C94.2778 40.4226 91.4081 37.5527 87.8705 37.5527H39.3833C35.8952 37.5527 33.0627 40.3359 32.9761 43.8116C33.0256 44.0714 33.3843 46.1493 35.9199 47.4728Z" fill="#DB8E1F"/>
<path d="M90.6166 92.4468H39.3958C35.8582 92.4468 32.9885 89.5772 32.9885 86.0396V43.7739C32.9885 43.7739 33.2112 46.0622 35.9324 47.4847C37.627 48.3629 40.3606 48.3628 41.647 48.3628H90.6166C94.1542 48.3628 97.0238 51.2327 97.0238 54.7703V86.0396C97.0238 89.5772 94.1542 92.4468 90.6166 92.4468Z" fill="#F5B14E"/>
<path d="M53.1626 69.1556H38.9133V54.9062H53.1626V69.1556ZM42.0304 66.0385H50.0456V58.0233H42.0304V66.0385Z" fill="white"/>
<path d="M47.6089 60.4604H44.4795V63.5899H47.6089V60.4604Z" fill="white"/>
<path d="M70.8631 69.1556H65.7051V66.0385H67.746V58.0233H59.7308V66.0385H61.7346V69.1556H56.6138V54.9062H70.8631V69.1556Z" fill="white"/>
<path d="M65.3093 60.4604H62.1799V63.5899H65.3093V60.4604Z" fill="white"/>
<path d="M53.1626 86.7449H38.9133V72.4956H46.1122V75.6127H42.0304V83.6279H50.0456V74.0541H53.1626V86.7449Z" fill="white"/>
<path d="M47.6089 78.0493H44.4795V81.1788H47.6089V78.0493Z" fill="white"/>
<path d="M59.7308 86.7449H56.6138V81.4016H61.3635V78.0493H64.4806V84.5184H59.7308V86.7449Z" fill="white"/>
<path d="M70.8631 86.7451H66.0762V83.628H67.746V80.4741H70.8631V86.7451Z" fill="white"/>
<path d="M70.8631 76.7266H67.7461V79.2496H70.8631V76.7266Z" fill="white"/>
<path d="M68.8594 72.4956H63.8127V75.6127H68.8594V72.4956Z" fill="white"/>
<path d="M59.7308 79.2491H56.6138V72.4956H62.1428V75.6127H59.7308V79.2491Z" fill="white"/>
<path d="M79.7073 77.1467C78.124 77.1467 76.8376 75.8605 76.8376 74.2772V66.3732C76.8376 64.7899 78.124 63.5034 79.7073 63.5034H97.0242V77.1591H79.7073V77.1467Z" fill="#DB8E1F"/>
<path d="M85.2484 70.3307C85.2484 71.9016 83.9744 73.1757 82.4035 73.1757C80.8326 73.1757 79.5586 71.9016 79.5586 70.3307C79.5586 68.7598 80.8326 67.4736 82.4035 67.4736C83.9744 67.4736 85.2484 68.7474 85.2484 70.3307Z" fill="#F39E22"/>
<path d="M78.8628 95.52L77.7828 75.4H86.2228L84.9828 95.52H78.8628ZM81.9828 105.36C80.8628 105.36 79.9561 105 79.2628 104.28C78.5695 103.533 78.2228 102.64 78.2228 101.6C78.2228 100.56 78.5695 99.68 79.2628 98.96C79.9561 98.2133 80.8628 97.84 81.9828 97.84C83.0495 97.84 83.9428 98.2133 84.6628 98.96C85.3828 99.68 85.7428 100.56 85.7428 101.6C85.7428 102.64 85.3828 103.533 84.6628 104.28C83.9428 105 83.0495 105.36 81.9828 105.36Z" fill="#EB5757"/>
</svg>
