<svg width="130" height="130" viewBox="0 0 130 130" fill="none" xmlns="http://www.w3.org/2000/svg">
    <path
        d="M119.833 64.9998C119.833 95.2795 95.2921 119.82 65.0124 119.82C34.7326 119.82 10.1922 95.2795 10.1922 64.9998C10.1922 34.7201 34.7326 10.1797 65.0124 10.1797C95.2797 10.1673 119.833 34.7201 119.833 64.9998Z"
        fill="#F8F8FB" />
    <path
        d="M65 130C29.1542 130 0 100.846 0 64.9999C0 29.1541 29.1542 0 65 0C100.846 0 130 29.1664 130 64.9999C130.012 100.833 100.846 130 65 130ZM65 2.07794C30.3045 2.07794 2.07802 30.3044 2.07802 64.9999C2.07802 99.6955 30.3045 127.922 65 127.922C99.6956 127.922 127.922 99.6955 127.922 64.9999C127.922 30.3044 99.6956 2.07794 65 2.07794Z"
        fill="#F8F8FB" />
    <path
        d="M84.6299 38.4436H73.7326L86.1266 50.8375V86.2381C86.1266 89.182 83.7393 91.5569 80.8078 91.5569H45.3949C44.8877 91.5569 44.4053 91.4827 43.9353 91.3466C44.2569 93.9812 46.4957 96.0098 49.2169 96.0098H84.6299C87.5737 96.0098 89.9486 93.6225 89.9486 90.691V43.7624C89.9486 40.8185 87.5614 38.4436 84.6299 38.4436Z"
        fill="#5D8EF9" />
    <path
        d="M69.2674 33.978H45.3949C42.4511 33.978 40.0762 36.3653 40.0762 39.2968V51.2577C41.9687 52.6431 43.3787 54.7088 43.923 57.1826C44.7517 61.0047 43.2674 64.7897 40.4101 67.0903L42.884 83.8382L40.2865 87.4995L40.237 87.4747C40.806 89.8001 42.8964 91.5318 45.4073 91.5318H80.8202C83.7641 91.5318 86.139 89.1445 86.139 86.213V50.8125L69.2674 33.978Z"
        fill="#495A7D" />
    <path
        d="M69.2674 33.978V45.506C69.2674 48.4499 71.6546 50.8248 74.5861 50.8248H86.1142L69.2674 33.978Z"
        fill="#1C315C" />
    <path
        d="M60.5472 45.5926H47.2998C46.5947 45.5926 46.0258 45.0235 46.0258 44.3185C46.0258 43.6135 46.5947 43.0444 47.2998 43.0444H60.5472C61.2522 43.0444 61.8212 43.6135 61.8212 44.3185C61.8212 45.0235 61.2522 45.5926 60.5472 45.5926Z"
        fill="white" />
    <path
        d="M65.6433 53.546H47.2874C46.5823 53.546 46.0134 52.9772 46.0134 52.2721C46.0134 51.5671 46.5823 50.998 47.2874 50.998H65.6433C66.3483 50.998 66.9173 51.5671 66.9173 52.2721C66.9173 52.9772 66.3483 53.546 65.6433 53.546Z"
        fill="white" />
    <path
        d="M77.1095 61.4995H47.2874C46.5823 61.4995 46.0134 60.9305 46.0134 60.2255C46.0134 59.5204 46.5823 58.9514 47.2874 58.9514H77.1095C77.8145 58.9514 78.3835 59.5204 78.3835 60.2255C78.3835 60.9305 77.8145 61.4995 77.1095 61.4995Z"
        fill="white" />
    <path
        d="M77.1095 69.4529H47.2874C46.5823 69.4529 46.0134 68.8839 46.0134 68.1788C46.0134 67.4738 46.5823 66.9048 47.2874 66.9048H77.1095C77.8145 66.9048 78.3835 67.4738 78.3835 68.1788C78.3835 68.8839 77.8145 69.4529 77.1095 69.4529Z"
        fill="white" />
    <path
        d="M77.1095 77.4061H47.2874C46.5823 77.4061 46.0134 76.8371 46.0134 76.1321C46.0134 75.427 46.5823 74.8582 47.2874 74.8582H77.1095C77.8145 74.8582 78.3835 75.427 78.3835 76.1321C78.3835 76.8371 77.8145 77.4061 77.1095 77.4061Z"
        fill="white" />
    <path
        d="M77.1095 85.3596H47.2874C46.5823 85.3596 46.0134 84.7906 46.0134 84.0856C46.0134 83.3805 46.5823 82.8115 47.2874 82.8115H77.1095C77.8145 82.8115 78.3835 83.3805 78.3835 84.0856C78.3835 84.7906 77.8145 85.3596 77.1095 85.3596Z"
        fill="white" />
    <path
        d="M31.7022 68.9829L34.1761 77.5918L36.9097 79.3483L35.4254 81.6489L37.726 83.1208L36.3654 85.2236V85.2359L40.2493 87.4995L42.8469 83.8383L40.373 67.0904C43.2303 64.8021 44.7146 61.0171 43.8859 57.1827C42.7232 51.7897 37.4044 48.3758 32.0115 49.5385C26.6185 50.7012 23.2046 56.02 24.3673 61.4006C25.2332 65.2474 28.1523 68.08 31.7022 68.9829ZM37.0952 54.9809C37.5405 57.0218 36.2417 59.0504 34.1884 59.4833C32.1475 59.9286 30.119 58.6299 29.6861 56.5766C29.2408 54.5357 30.5395 52.5071 32.5928 52.0742C34.6461 51.6413 36.6499 52.94 37.0952 54.9809Z"
        fill="#F39E22" />
    <rect x="98.3103" y="61.061" width="17.4958" height="3.18106"
        transform="rotate(45 98.3103 61.061)" fill="#EB5757" />
    <rect x="110.682" y="63.3103" width="17.4958" height="3.18106"
        transform="rotate(135 110.682 63.3103)" fill="#EB5757" />
</svg>
