<svg width="193" height="193" viewBox="0 0 193 193" fill="none" xmlns="http://www.w3.org/2000/svg">
<path d="M177.887 96.5C177.887 141.454 141.454 177.887 96.4999 177.887C51.5462 177.887 15.113 141.454 15.113 96.5C15.113 51.5462 51.5462 15.1131 96.4999 15.1131C141.454 15.1131 177.887 51.5462 177.887 96.5Z" fill="#F8F8FB"/>
<path d="M96.5 193C43.2827 193 0 149.717 0 96.5C0 43.2827 43.301 0 96.5 0C149.717 0 193 43.2827 193 96.5C193 149.717 149.717 193 96.5 193ZM96.5 3.08505C44.9905 3.08505 3.08505 44.9905 3.08505 96.5C3.08505 148.01 44.9905 189.915 96.5 189.915C148.01 189.915 189.915 148.01 189.915 96.5C189.915 44.9905 148.01 3.08505 96.5 3.08505Z" fill="#F8F8FB"/>
<path d="M52.7764 51.6381L53.3824 51.7849L52.7764 51.9319C49.2506 52.7766 46.5144 55.4025 45.633 58.7814L45.4861 59.3507L45.3392 58.7814C44.4578 55.4025 41.7032 52.7766 38.1958 51.9319L37.5898 51.7849L38.1958 51.6381C41.7216 50.7933 44.4578 48.1673 45.3392 44.7885L45.4861 44.2192L45.633 44.7885C46.4961 48.1673 49.2506 50.7933 52.7764 51.6381Z" fill="#242C3D"/>
<path d="M166.538 129.022L167.052 129.15L166.538 129.279C163.563 129.995 161.25 132.217 160.497 135.063L160.368 135.541L160.24 135.063C159.487 132.217 157.173 129.995 154.198 129.279L153.684 129.15L154.198 129.022C157.173 128.306 159.505 126.084 160.24 123.237L160.368 122.741L160.497 123.237C161.231 126.084 163.563 128.306 166.538 129.022Z" fill="#FFBE1B"/>
<path d="M78.761 137.744L79.2752 137.873L78.761 138.001C75.7861 138.718 73.454 140.94 72.7011 143.804L72.5725 144.3L72.444 143.804C71.6911 140.94 69.3589 138.718 66.384 138.001L65.8699 137.873L66.384 137.744C69.3589 137.028 71.6911 134.788 72.444 131.941L72.5725 131.446L72.7011 131.941C73.454 134.806 75.7861 137.028 78.761 137.744Z" fill="#1C315C"/>
<path d="M97.8224 148.909L98.6855 149.111L97.8224 149.313C92.7541 150.525 88.7876 154.327 87.5205 159.175L87.3001 160.001L87.0798 159.175C85.8127 154.308 81.8462 150.525 76.7779 149.313L75.9148 149.111L76.7779 148.909C81.8462 147.697 85.8127 143.896 87.0798 139.03L87.3001 138.203L87.5205 139.03C88.806 143.896 92.7541 147.697 97.8224 148.909Z" fill="#1C315C"/>
<path d="M38.5815 63.0234L38.8937 63.0968L38.5815 63.1703C36.7451 63.611 35.2945 64.9883 34.8354 66.7695L34.7619 67.0634L34.6884 66.7695C34.2294 65.0066 32.7786 63.6294 30.9423 63.1703L30.6301 63.0968L30.9423 63.0234C32.7786 62.5827 34.2294 61.2054 34.6884 59.4242L34.7619 59.1303L34.8354 59.4242C35.2945 61.2054 36.7268 62.5827 38.5815 63.0234Z" fill="#242C3D"/>
<path d="M60.9299 67.3572H43.1541C39.6283 67.3572 36.782 70.2035 36.782 73.7293V116.681C37.6083 116.406 38.4898 116.259 39.4079 116.259C44.0172 116.259 47.7633 120.005 47.7633 124.614C47.7633 124.706 47.7633 124.798 47.7633 124.89H60.9483C64.4741 124.89 67.3204 122.044 67.3204 118.518V73.7109C67.3021 70.2035 64.4374 67.3572 60.9299 67.3572Z" fill="#1C315C"/>
<path d="M60.526 78.3386H43.5398V82.8743H60.526V78.3386Z" fill="white"/>
<path d="M60.526 88.7506H43.5398V93.2864H60.526V88.7506Z" fill="white"/>
<path d="M60.526 98.9607H43.5398V103.496H60.526V98.9607Z" fill="white"/>
<path d="M60.526 109.373H43.5398V113.909H60.526V109.373Z" fill="white"/>
<path d="M54.1172 72.4622C54.1172 73.6191 53.1807 74.5373 52.0421 74.5373C50.8852 74.5373 49.967 73.6008 49.967 72.4622C49.967 71.3053 50.9036 70.3871 52.0421 70.3871C53.1807 70.3871 54.1172 71.3237 54.1172 72.4622Z" fill="white"/>
<path d="M110.107 76.392C105.48 76.392 101.752 72.6459 101.752 68.0366C101.752 67.8163 101.77 67.5775 101.789 67.3572H87.6304C84.1046 67.3572 81.2583 70.2035 81.2583 73.7293V118.536C81.2583 122.062 84.1046 124.908 87.6304 124.908H105.406C108.932 124.908 111.778 122.062 111.778 118.536V76.2267C111.227 76.3369 110.677 76.392 110.107 76.392Z" fill="#1C315C"/>
<path d="M105.002 78.3386H88.0159V82.8743H105.002V78.3386Z" fill="white"/>
<path d="M105.002 88.7506H88.0159V93.2864H105.002V88.7506Z" fill="white"/>
<path d="M105.002 98.9607H88.0159V103.496H105.002V98.9607Z" fill="white"/>
<path d="M105.002 109.373H88.0159V113.909H105.002V109.373Z" fill="white"/>
<path d="M98.575 72.4622C98.575 73.6191 97.6384 74.5373 96.4999 74.5373C95.3614 74.5373 94.4248 73.6008 94.4248 72.4622C94.4248 71.3053 95.3614 70.3871 96.4999 70.3871C97.6384 70.3871 98.575 71.3237 98.575 72.4622Z" fill="white"/>
<path d="M98.575 119.767C98.575 120.923 97.6384 121.842 96.4999 121.842C95.3614 121.842 94.4248 120.905 94.4248 119.767C94.4248 118.61 95.3614 117.691 96.4999 117.691C97.6384 117.691 98.575 118.628 98.575 119.767Z" fill="white"/>
<path d="M154.951 76.392C150.342 76.392 146.595 72.6459 146.595 68.0366C146.595 67.8163 146.614 67.5775 146.632 67.3572H132.107C128.581 67.3572 125.735 70.2035 125.735 73.7293V118.536C125.735 122.062 128.581 124.908 132.107 124.908H149.883C153.408 124.908 156.255 122.062 156.255 118.536V76.3002C155.814 76.3553 155.373 76.392 154.951 76.392Z" fill="#1C315C"/>
<path d="M149.46 78.3386H132.474V82.8743H149.46V78.3386Z" fill="white"/>
<path d="M149.46 88.7506H132.474V93.2864H149.46V88.7506Z" fill="white"/>
<path d="M149.46 98.9607H132.474V103.496H149.46V98.9607Z" fill="white"/>
<path d="M149.46 109.373H132.474V113.909H149.46V109.373Z" fill="white"/>
<path d="M143.051 119.767C143.051 120.923 142.115 121.842 140.976 121.842C139.819 121.842 138.901 120.905 138.901 119.767C138.901 118.61 139.838 117.691 140.976 117.691C142.115 117.691 143.051 118.628 143.051 119.767Z" fill="white"/>
<path d="M96.6283 66.1819C95.8571 66.1819 95.1409 65.7045 94.8471 64.9516C94.6083 64.3089 94.3329 63.6661 94.0207 63.0418C93.5616 62.1052 93.9473 60.9667 94.9022 60.5076C95.8387 60.0485 96.9772 60.4342 97.4363 61.3891C97.8036 62.1236 98.1158 62.8765 98.4096 63.6478C98.7769 64.621 98.2627 65.7228 97.2894 66.0717C97.069 66.1452 96.8487 66.1819 96.6283 66.1819Z" fill="#242C3D"/>
<path d="M53.1072 66.1819C52.8868 66.1819 52.6665 66.1452 52.4461 66.0717C51.4729 65.7044 50.9587 64.621 51.3259 63.6478C51.6014 62.8765 51.9319 62.1236 52.2992 61.389C52.7583 60.4525 53.8968 60.0669 54.8334 60.5076C55.7699 60.9667 56.1739 62.1052 55.7148 63.0417C55.421 63.6661 55.1272 64.3088 54.8885 64.9516C54.5946 65.7045 53.8785 66.1819 53.1072 66.1819Z" fill="#242C3D"/>
<path d="M93.1394 55.1455C92.1111 54.0437 90.9542 53.0336 89.7422 52.1338C88.8975 51.5095 87.7222 51.6931 87.0978 52.5378C86.4735 53.3825 86.6571 54.5578 87.5018 55.1822C88.5302 55.9534 89.5035 56.7982 90.3849 57.7347C90.7522 58.1387 91.2664 58.3223 91.7622 58.3223C92.2213 58.3223 92.6987 58.157 93.066 57.8081C93.8189 57.1103 93.8556 55.9167 93.1394 55.1455Z" fill="#242C3D"/>
<path d="M59.9935 52.1338C58.7815 53.0336 57.6246 54.0437 56.5962 55.1455C55.8801 55.8984 55.9168 57.1103 56.6697 57.8265C57.037 58.1754 57.4961 58.3407 57.9735 58.3407C58.4693 58.3407 58.9835 58.1387 59.3508 57.753C60.2322 56.8165 61.2055 55.9534 62.2338 55.1822C63.0786 54.5578 63.2622 53.3825 62.6378 52.5378C62.0135 51.6931 60.8382 51.5095 59.9935 52.1338Z" fill="#242C3D"/>
<path d="M83.0579 48.6264C81.6255 48.1306 80.1381 47.7634 78.6507 47.543C77.6223 47.3961 76.6491 48.0939 76.5022 49.1223C76.3553 50.1506 77.0531 51.1239 78.0814 51.2708C79.3485 51.4544 80.6156 51.7666 81.8276 52.189C82.0296 52.2624 82.2316 52.2991 82.4519 52.2991C83.2416 52.2991 83.9761 51.8033 84.2332 51.032C84.5637 50.0404 84.0495 48.957 83.0579 48.6264Z" fill="#242C3D"/>
<path d="M73.8209 47.0472L69.1567 44.4579C68.2385 43.9438 67.0999 44.2743 66.5857 45.1925C66.0716 46.1106 66.4021 47.2492 67.3203 47.7633L68.0915 48.1857C67.6141 48.3143 67.1367 48.4611 66.6776 48.6264C65.686 48.9753 65.1717 50.0404 65.5023 51.032C65.7777 51.8217 66.5123 52.3175 67.2835 52.3175C67.4855 52.3175 67.6875 52.2808 67.9079 52.2073C68.2568 52.0788 68.6057 51.987 68.973 51.8768L68.6608 52.4461C68.1466 53.3642 68.4772 54.5028 69.3953 55.0169C69.6892 55.1822 70.0013 55.2557 70.3135 55.2557C70.9746 55.2557 71.6174 54.9068 71.9663 54.2824L74.5555 49.6181C74.7942 49.1773 74.8677 48.6632 74.7208 48.1857C74.5922 47.6899 74.2617 47.2859 73.8209 47.0472Z" fill="#242C3D"/>
<path d="M139.122 132.327C138.846 132.327 138.571 132.272 138.295 132.143C137.359 131.684 136.973 130.546 137.414 129.609C137.726 128.985 138.001 128.342 138.24 127.7C138.607 126.726 139.691 126.212 140.664 126.579C141.637 126.947 142.152 128.03 141.784 129.003C141.509 129.775 141.178 130.527 140.811 131.262C140.499 131.923 139.838 132.327 139.122 132.327Z" fill="#242C3D"/>
<path d="M97.4 132.327C96.7022 132.327 96.0227 131.941 95.6922 131.262C95.3249 130.527 95.0127 129.775 94.7189 129.003C94.3516 128.03 94.8475 126.928 95.8391 126.579C96.8124 126.212 97.9141 126.726 98.263 127.7C98.5018 128.342 98.7772 128.985 99.0894 129.609C99.5485 130.546 99.1629 131.684 98.208 132.143C97.9509 132.254 97.6754 132.327 97.4 132.327Z" fill="#242C3D"/>
<path d="M105.645 137.45C104.617 136.679 103.644 135.835 102.762 134.898C102.046 134.145 100.852 134.108 100.081 134.825C99.3282 135.541 99.2914 136.734 100.008 137.506C101.054 138.607 102.193 139.617 103.405 140.517C103.735 140.774 104.139 140.885 104.525 140.885C105.113 140.885 105.682 140.627 106.049 140.113C106.655 139.25 106.49 138.075 105.645 137.45Z" fill="#242C3D"/>
<path d="M125.221 140.425C124.009 140.848 122.741 141.16 121.474 141.344C120.446 141.491 119.73 142.464 119.895 143.492C120.042 144.429 120.85 145.108 121.768 145.108C121.86 145.108 121.952 145.108 122.062 145.09C123.568 144.869 125.037 144.502 126.469 144.006C127.461 143.657 127.975 142.592 127.644 141.601C127.296 140.609 126.212 140.095 125.221 140.425Z" fill="#242C3D"/>
<path d="M136.459 134.806C135.706 134.09 134.494 134.127 133.778 134.898C132.896 135.835 131.923 136.698 130.895 137.45C130.05 138.075 129.867 139.25 130.491 140.095C130.858 140.591 131.427 140.866 132.015 140.866C132.401 140.866 132.805 140.738 133.135 140.499C134.347 139.599 135.504 138.589 136.532 137.487C137.249 136.716 137.212 135.522 136.459 134.806Z" fill="#242C3D"/>
<path d="M115.359 138.35C114.845 137.432 113.707 137.102 112.788 137.616C111.87 138.13 111.54 139.269 112.054 140.187L112.366 140.756C112.017 140.646 111.65 140.536 111.301 140.425C110.309 140.077 109.244 140.609 108.895 141.601C108.547 142.592 109.079 143.657 110.071 144.006C110.53 144.172 111.007 144.318 111.485 144.447L110.713 144.869C109.795 145.384 109.465 146.522 109.979 147.44C110.328 148.065 110.97 148.414 111.632 148.414C111.944 148.414 112.256 148.34 112.55 148.175L117.214 145.586C117.655 145.347 117.985 144.943 118.114 144.447C118.261 143.97 118.187 143.455 117.949 143.015L115.359 138.35Z" fill="#242C3D"/>
<path d="M163.306 68.0366C163.306 72.6459 159.56 76.392 154.951 76.392C150.342 76.392 146.596 72.6459 146.596 68.0366C146.596 63.4274 150.342 59.6813 154.951 59.6813C159.56 59.6629 163.306 63.409 163.306 68.0366Z" fill="#FFBE1B"/>
<path d="M153.574 72.554C153.206 72.554 152.858 72.4071 152.6 72.1684L149.717 69.3772C149.167 68.8447 149.148 67.9448 149.681 67.3939C150.213 66.843 151.113 66.8247 151.664 67.3572L153.464 69.1018L157.889 63.8498C158.385 63.2621 159.266 63.1887 159.854 63.6845C160.442 64.1803 160.515 65.0618 160.019 65.6494L154.639 72.0582C154.382 72.3521 154.033 72.5357 153.647 72.554C153.629 72.554 153.592 72.554 153.574 72.554Z" fill="#242C3D"/>
<path d="M118.462 68.0366C118.462 72.6459 114.716 76.392 110.107 76.392C105.479 76.392 101.752 72.6459 101.752 68.0366C101.752 63.4274 105.498 59.6813 110.107 59.6813C114.716 59.6629 118.462 63.409 118.462 68.0366Z" fill="#FFBE1B"/>
<path d="M108.73 72.554C108.363 72.554 108.014 72.4071 107.757 72.1684L104.874 69.3772C104.323 68.8447 104.305 67.9448 104.837 67.3939C105.37 66.843 106.27 66.8247 106.82 67.3572L108.62 69.1018L113.046 63.8498C113.541 63.2621 114.423 63.1887 115.029 63.6845C115.617 64.1803 115.69 65.0618 115.194 65.6494L109.814 72.0582C109.557 72.3521 109.208 72.5357 108.822 72.554C108.767 72.554 108.749 72.554 108.73 72.554Z" fill="#242C3D"/>
<path d="M47.7449 124.614C47.7449 129.242 43.9988 132.97 39.3895 132.97C34.7619 132.97 31.0342 129.224 31.0342 124.614C31.0342 120.005 34.7803 116.259 39.3895 116.259C44.0171 116.259 47.7449 120.005 47.7449 124.614Z" fill="#FFBE1B"/>
<path d="M38.0124 129.15C37.6452 129.15 37.2963 129.003 37.0392 128.765L34.1561 125.973C33.6052 125.441 33.5869 124.541 34.1194 123.99C34.6519 123.439 35.5518 123.421 36.1027 123.953L37.9023 125.698L42.3279 120.446C42.8237 119.858 43.7051 119.785 44.2928 120.281C44.8804 120.777 44.9539 121.658 44.458 122.246L39.0776 128.654C38.8205 128.948 38.4716 129.132 38.0859 129.15C38.0676 129.15 38.0492 129.15 38.0124 129.15Z" fill="#242C3D"/>
</svg>
