<svg width="65" height="56" viewBox="0 0 65 56" fill="none" xmlns="http://www.w3.org/2000/svg">
<path d="M31.587 0.100685L3.16568 6.57713C2.26724 6.78236 1.46459 7.28965 0.889379 8.01579C0.314171 8.74193 0.000564137 9.6438 0 10.5735V45.5023C0.000395896 46.4334 0.31475 47.3365 0.891356 48.0633C1.46796 48.79 2.27248 49.2971 3.17258 49.501L31.5387 55.9016C32.1213 56.0328 32.7253 56.0328 33.3078 55.9016L61.7836 49.4987C62.6845 49.2955 63.49 48.7886 64.0674 48.0617C64.6448 47.3347 64.9596 46.4309 64.96 45.4992V10.5735C64.9595 9.64391 64.646 8.74212 64.0709 8.01599C63.4959 7.28987 62.6934 6.78251 61.7951 6.57713L33.373 0.100685C32.7851 -0.0335617 32.1749 -0.0335617 31.587 0.100685Z" fill="white"/>
<path d="M31.3601 42.5599H7.84009V13.4399H31.3601V17.1721H16.1953V26.0124H29.9715V29.7217H16.1937V38.8286H31.3586L31.3601 42.5599Z" fill="#1C315C"/>
<path d="M59.3603 13.4399L43.3886 38.8286H58.1554V42.5599H31.3604L47.4202 17.1721H33.6395V13.4399H59.3603Z" fill="#1C315C"/>
</svg>
