<svg width="375" height="296" viewBox="0 0 375 296" fill="none" xmlns="http://www.w3.org/2000/svg">
<g clip-path="url(#clip0_83_1286)">
<path d="M794.352 -125.885L794.266 -126.014L794.288 -126.057L794.245 -126.079L727.524 -219.655L727.588 -219.72H727.481L727.416 -219.805L727.331 -219.72L221.625 -229.888V-229.91H221.54L221.454 -230.017L221.411 -229.931L221.282 -229.953L221.304 -229.91L220.575 -229.931L220.875 -229.888L-25.5135 -216.008L-25.5993 -216.158L-25.6851 -216.008L-182.24 -229.888V-229.91H-182.326L-182.411 -230.017L-182.454 -229.91L-182.583 -229.931L-182.562 -229.91L-277.541 -223.967L-240.214 -102.33H-240.278L-240.214 -102.266L-240.235 -102.202H-240.214L-275.804 38.0561H-275.847L-275.826 38.1419L-275.847 38.2062H-275.826L-227.564 210.901L-227.65 210.858L-227.543 211.072L-227.607 211.094L-227.543 211.136L-227.671 211.244L-227.543 211.222L-277.519 419.85L-277.648 419.979L-277.541 419.957L-277.584 420.15L-277.326 419.914L-147.25 403.503V403.546L-147.121 403.481H-147.035V403.46L-79.7996 374.477L-79.7139 374.435L-79.5638 374.52V374.477L20.3037 418.863L20.3252 418.927L20.4109 418.906L20.5825 418.97L20.561 418.863L105.999 395.201L105.978 395.265L106.128 395.179L106.214 395.222V395.179L240.021 418.863L239.914 419.013L240.107 418.927L240.149 419.035L240.257 418.906L240.342 418.927L240.321 418.863L355.54 370.53L355.518 370.659L355.647 370.552L355.733 370.745L355.797 370.487L569.296 418.906L569.275 418.97L569.361 418.949L569.468 419.099L569.511 418.949L569.639 418.97L569.575 418.885L739.98 384.796L740.087 384.839L740.109 384.753L740.238 384.732L740.13 384.689L792.658 197.407L792.766 197.428L792.701 197.342L792.787 197.299L792.701 197.278L792.744 197.128L792.658 197.192L740.173 19.95H740.195L740.152 19.8427L794.374 -125.95L794.352 -125.885ZM727.395 -219.505L793.945 -126.121L784.34 -128.353L671.458 -154.675L671.501 -154.696L671.286 -154.739L671.351 -154.825L671.286 -154.739L671.351 -154.825L705.676 -194.47L727.395 -219.505ZM-79.6281 374.263L-93.1567 294.437L-80.9359 299.822L-93.1567 294.437L-80.9359 299.822L0.686157 335.82L-79.6281 374.263ZM221.475 -229.652L280.628 -156.756L340.081 -83.5164L339.931 -83.4949L339.974 -83.4735L93.5213 0.428024L138.481 -80.4272L221.475 -229.652ZM221.668 -229.738L652.012 -157.807L670.75 -154.675L340.36 -83.5807V-83.6022L340.296 -83.5807L340.146 -83.8596V-83.7524L235.154 -213.134L221.668 -229.738ZM738.844 110.352L649.954 168.574L556.84 -24.8218L589.279 -0.730423L738.844 110.352ZM1.02917 335.734L22.1047 289.568L22.169 289.696L22.1905 289.46L85.4599 315.74L119.357 329.813L1.02917 335.734ZM0.814789 335.691L0.729004 335.627V335.648L-14.1503 329.083L-92.9638 294.309L21.9546 289.375L13.4644 307.974L0.814789 335.691ZM-80.4214 -113.936L-34.9257 -83.924L93.1997 0.578201L93.0282 0.642548H93.0711L-54.1574 62.7696L-66.4639 -19.8877L-80.4214 -113.936ZM518.505 229.865V229.8L518.441 229.865L486.774 180.523L443.101 112.454L649.696 168.703L518.505 229.865ZM327.625 301.946L320.871 174.86L326.917 180.459L386.799 235.936L327.625 301.946ZM386.863 235.786L320.871 174.645L442.693 112.518L386.863 235.786ZM212.964 334.683L136.766 259.684L273.446 196.549L320.464 174.839L224.091 318.121L212.964 334.683ZM119.571 329.77L22.3191 289.353L136.487 259.791L135.501 263.846L119.571 329.77ZM-93.1353 294.201L-61.79 234.198L-33.8966 180.781L21.9546 289.267L9.90533 289.782L-93.1353 294.201ZM93.4999 0.792725L320.571 174.603L136.723 259.534L126.475 198.222L93.4999 0.792725ZM334.829 -23.8779L340.317 -83.1088L362.143 -41.4691L442.565 111.939L331.012 17.3757L334.829 -23.8779ZM331.012 17.5902L442.758 112.304L364.609 152.163L320.85 174.474L328.568 55.1539L331.012 17.5902ZM328.032 59.9807L320.614 174.409L320.592 174.388V174.431L319.606 173.68L93.5856 0.664017L330.776 17.44L328.032 59.9807ZM40.3073 284.548L22.2119 289.224L27.8077 246.705L45.067 115.586L136.487 259.62L40.3073 284.548ZM44.8525 115.522L22.019 288.988L-33.7894 180.588L8.76901 145.384L44.8525 115.522ZM22.019 288.988L44.8525 115.522L22.019 288.988ZM44.9812 115.071L44.9383 114.985L44.9168 115.157L-54.0716 62.8983L-36.3407 55.4113L93.1783 0.749817L50.4269 102.178L93.1783 0.749817L50.4269 102.178L44.9812 115.071ZM-54.1359 63.0485L44.8311 115.307L-33.8323 180.373L-34.2611 177.928L-54.1359 63.0485ZM443.058 112.304L556.561 -24.9291L643.843 156.346L649.739 168.574L443.058 112.304ZM556.432 -25.1007L396.79 -68.1563L556.432 -25.1007L528.303 8.92329L442.929 112.154L340.424 -83.3448L396.79 -68.1348L340.424 -83.3448L556.432 -25.1007ZM340.124 -83.3662L330.819 17.3113L340.124 -83.3662ZM330.819 17.204L330.798 17.3328L93.6928 0.556763L340.103 -83.3448L330.819 17.204ZM93.3069 0.96434L136.423 259.169L45.1098 115.307L45.1313 115.286L45.1098 115.264L57.0948 86.8181L93.3069 0.96434ZM-34.0252 180.502L-227.114 210.986L-54.3503 63.0485L-34.0252 180.502ZM119.785 329.834L132.907 275.538L136.68 259.963L136.83 260.199L136.787 259.984L212.771 334.768L139.489 330.885L119.785 329.834ZM213.199 334.704L213.092 334.854L213.199 334.704L248.704 324.578L213.199 334.704L303.805 200.003L320.657 174.967L327.432 302.182L248.725 324.6L213.199 334.704ZM386.713 236.301L355.582 370.08L327.646 302.203L386.713 236.301ZM387.056 235.871L391.495 226.068L442.929 112.54L452.384 127.299L518.248 229.951L474.167 231.946L387.056 235.871ZM518.548 230.015L649.739 168.853L596.418 310.913L518.548 230.015ZM738.887 110.159L556.947 -24.972L626.155 -7.98143L739.787 19.9285L738.887 110.159ZM556.625 -25.3152L556.582 -25.2509L556.347 -25.4225L556.432 -25.2509L340.553 -83.4735L670.901 -154.568L556.625 -25.3152ZM-80.4428 -114.151L-25.5779 -215.729L-1.47931 -171.88L93.0925 0.277863L-80.4428 -114.151ZM-80.6787 -114.065L-58.9385 32.2209L-54.4147 62.6194L-239.871 -102.223L-139.724 -109.667L-80.6787 -114.065ZM-54.5433 183.892L-34.0681 180.652L-93.3283 294.158L-227.135 211.136L-54.5433 183.892ZM-175.165 243.594L-93.5427 294.223H-93.607L-93.4998 294.266L-168.711 320.867L-168.733 320.803L-168.754 320.824L-227.114 211.351L-175.165 243.594ZM-168.626 320.996L-120.15 303.855L-93.3926 294.394L-90.6483 310.57L-79.8639 374.198L-168.626 320.996ZM119.742 329.963L154.947 331.829L212.728 334.897L183.612 351.33L106.235 394.986L119.742 329.963ZM213.135 334.854L327.282 302.332L240.171 418.67L213.114 334.919H213.178L213.135 334.854ZM386.992 236L515.01 230.229L518.162 230.079L418.702 315.869L355.775 370.144L386.992 236ZM355.84 370.358L518.312 230.208L526.781 363.451L355.84 370.358ZM518.548 230.272L572.705 286.543L596.332 311.085L596.311 311.106H596.332L527.017 363.322L518.548 230.272ZM546.87 348.563L596.289 311.321L569.254 418.648L527.017 363.515L546.87 348.563ZM596.654 310.892L649.997 168.789L650.104 168.81V168.789L759.812 190.864L792.272 197.385L596.654 310.892ZM671.094 -154.482L739.744 19.7784L556.754 -25.165L592.73 -65.8394L556.711 -25.1007L671.201 -154.589H671.158H671.201L671.094 -154.482L592.73 -65.8394L671.094 -154.482ZM727.223 -219.591L671.072 -154.761L670.965 -154.782V-154.761L556.304 -173.918L222.397 -229.759L727.223 -219.591ZM221.304 -229.759L93.4142 0.256409L93.3927 0.192047L93.3284 0.342224L82.394 -19.5659L-25.4492 -215.88L221.304 -229.759ZM-25.7279 -215.88L-80.5929 -114.301L-114.382 -152.701L-182.176 -229.759L-25.7279 -215.88ZM-80.743 -114.194L-113.975 -111.727L-239.914 -102.352L-182.347 -229.652L-80.743 -114.194ZM-277.283 -223.839L-182.54 -229.759L-240.064 -102.566L-277.283 -223.839ZM-239.999 -102.094L-54.5004 62.7696L-275.59 38.099L-239.999 -102.094ZM-275.568 38.2491L-54.4576 62.9412L-165.388 157.912L-227.307 210.943L-275.568 38.2491ZM-227.328 211.415L-168.926 320.974L-168.969 320.996L-168.926 321.017L-247.975 393.013L-277.219 419.592L-227.328 211.415ZM-277.155 419.785L-190.366 340.754L-168.861 321.167L-159.192 357.98L-147.271 403.396L-277.155 419.785ZM-147.1 403.331L-152.374 383.187L-168.647 321.167L-129.498 344.637L-79.9068 374.37L-147.1 403.331ZM-79.5423 374.392L-64.8345 367.355L0.793335 335.948L20.2394 418.734L-79.5423 374.392ZM20.4753 418.777L1.02917 335.991L50.6413 363.966L105.892 395.115L20.4753 418.777ZM105.999 395.008L1.13638 335.862L119.528 329.942L105.999 395.008ZM106.3 395.115L212.921 334.961L218.624 352.596L239.999 418.799L106.3 395.115ZM240.407 418.691L327.496 302.396L355.475 370.358L355.089 370.38L355.368 370.444L240.407 418.691ZM356.14 370.487L526.331 363.601L526.781 363.579V363.687L526.845 363.622L529.59 367.205L569.082 418.756L356.14 370.487ZM569.446 418.777L571.097 412.256L596.547 311.213L614.363 320.374L739.68 384.732L569.446 418.777ZM739.809 384.646L596.632 311.106L792.272 197.578L739.809 384.646ZM660.588 170.763L650.104 168.66L678.919 149.782L738.93 110.48L792.229 197.278L660.588 170.763ZM792.122 196.634L739.123 110.352L739.144 110.33L739.101 110.309L739.98 20.5936L792.122 196.634ZM739.894 19.5853L722.785 -23.8564L671.286 -154.568L794.009 -125.95L739.894 19.5853Z" fill="#F0DEC4"/>
</g>
<defs>
<clipPath id="clip0_83_1286">
<rect width="375" height="296" fill="white"/>
</clipPath>
</defs>
</svg>
