<svg width="32" height="32" viewBox="0 0 32 32" fill="none" xmlns="http://www.w3.org/2000/svg">
<path d="M10.6663 19.6667C10.4129 19.6667 10.1596 19.5734 9.9596 19.3734L7.29293 16.7067C6.90626 16.3201 6.90626 15.68 7.29293 15.2933L9.9596 12.6267C10.3463 12.24 10.9863 12.24 11.3729 12.6267C11.7596 13.0133 11.7596 13.6534 11.3729 14.0401L9.41292 16L11.3729 17.96C11.7596 18.3467 11.7596 18.9867 11.3729 19.3734C11.1729 19.5734 10.9196 19.6667 10.6663 19.6667Z" fill="white"/>
<path d="M21.3336 19.6667C21.0802 19.6667 20.8269 19.5734 20.6269 19.3734C20.2402 18.9867 20.2402 18.3467 20.6269 17.96L22.5869 16L20.6269 14.0401C20.2402 13.6534 20.2402 13.0133 20.6269 12.6267C21.0136 12.24 21.6536 12.24 22.0402 12.6267L24.7069 15.2933C25.0936 15.68 25.0936 16.3201 24.7069 16.7067L22.0402 19.3734C21.8402 19.5734 21.5869 19.6667 21.3336 19.6667Z" fill="white"/>
<path d="M16.0003 30.3334C8.09366 30.3334 1.66699 23.9067 1.66699 16.0001C1.66699 8.09342 8.09366 1.66675 16.0003 1.66675C23.907 1.66675 30.3337 8.09342 30.3337 16.0001C30.3337 23.9067 23.907 30.3334 16.0003 30.3334ZM16.0003 3.66675C9.20033 3.66675 3.66699 9.20008 3.66699 16.0001C3.66699 22.8001 9.20033 28.3334 16.0003 28.3334C22.8003 28.3334 28.3337 22.8001 28.3337 16.0001C28.3337 9.20008 22.8003 3.66675 16.0003 3.66675Z" fill="white"/>
<path d="M14.6671 20.1067C14.5338 20.1067 14.4005 20.08 14.2805 20.0267C13.7738 19.8133 13.5338 19.2267 13.7605 18.7067L16.4272 12.48C16.6405 11.9733 17.2272 11.7333 17.7338 11.96C18.2405 12.1733 18.4805 12.76 18.2538 13.28L15.5872 19.5067C15.4272 19.88 15.0538 20.1067 14.6671 20.1067Z" fill="white"/>
</svg>
