<svg width="16" height="16" viewBox="0 0 16 16" fill="none" xmlns="http://www.w3.org/2000/svg">
<path d="M7.39992 15.1667H4.59992C1.99325 15.1667 0.833252 14.0067 0.833252 11.4V8.59999C0.833252 5.99333 1.99325 4.83333 4.59992 4.83333H7.39992C10.0066 4.83333 11.1666 5.99333 11.1666 8.59999V11.4C11.1666 14.0067 10.0066 15.1667 7.39992 15.1667ZM4.59992 5.83333C2.53325 5.83333 1.83325 6.53333 1.83325 8.59999V11.4C1.83325 13.4667 2.53325 14.1667 4.59992 14.1667H7.39992C9.46659 14.1667 10.1666 13.4667 10.1666 11.4V8.59999C10.1666 6.53333 9.46659 5.83333 7.39992 5.83333H4.59992Z" fill="#F39E22"/>
<path d="M11.3999 11.1667H10.6666C10.3933 11.1667 10.1666 10.94 10.1666 10.6667V8.59999C10.1666 6.53333 9.46659 5.83333 7.39992 5.83333H5.33325C5.05992 5.83333 4.83325 5.60666 4.83325 5.33333V4.6C4.83325 1.99333 5.99325 0.833328 8.59992 0.833328H11.3999C14.0066 0.833328 15.1666 1.99333 15.1666 4.6V7.4C15.1666 10.0067 14.0066 11.1667 11.3999 11.1667ZM11.1666 10.1667H11.3999C13.4666 10.1667 14.1666 9.46666 14.1666 7.4V4.6C14.1666 2.53333 13.4666 1.83333 11.3999 1.83333H8.59992C6.53325 1.83333 5.83325 2.53333 5.83325 4.6V4.83333H7.39992C10.0066 4.83333 11.1666 5.99333 11.1666 8.59999V10.1667Z" fill="#F39E22"/>
</svg>
