<svg width="25" height="24" viewBox="0 0 25 24" fill="none" xmlns="http://www.w3.org/2000/svg">
<path d="M12.7498 22.6C11.6398 22.6 10.6098 22.13 9.83982 21.29L2.97982 13.75C2.00982 12.69 1.70982 10.82 2.28982 9.51003L4.84983 3.75003C5.54983 2.18003 6.71983 1.41003 8.43983 1.41003H17.0298V2.16003V1.41003C18.7498 1.41003 19.9198 2.17004 20.6198 3.74004L23.1798 9.50003C23.7598 10.81 23.4698 12.68 22.4998 13.74L15.6498 21.29C14.8998 22.13 13.8598 22.6 12.7498 22.6ZM17.0398 2.90004H8.44982C7.13982 2.90004 6.60982 3.48003 6.22982 4.35003L3.66982 10.11C3.32982 10.88 3.52982 12.11 4.08982 12.73L10.9498 20.27C11.4298 20.8 12.0698 21.09 12.7498 21.09C13.4298 21.09 14.0698 20.8 14.5498 20.27L21.3998 12.72C21.9698 12.09 22.1698 10.87 21.8198 10.1L19.2598 4.34003C18.8798 3.48003 18.3498 2.90004 17.0398 2.90004Z" fill="#9EA1A9"/>
<path d="M4.25 8.74999C3.84 8.74999 3.5 8.40999 3.5 7.99999C3.5 7.58999 3.84 7.24999 4.25 7.24999L21.25 7.23999C21.66 7.23999 22 7.57999 22 7.98999C22 8.39999 21.66 8.73999 21.25 8.73999L4.25 8.74999Z" fill="#9EA1A9"/>
</svg>
