<svg width="32" height="32" viewBox="0 0 32 32" fill="none" xmlns="http://www.w3.org/2000/svg">
<path d="M20.0003 30.3334H12.0003C4.76033 30.3334 1.66699 27.2401 1.66699 20.0001V12.0001C1.66699 4.76008 4.76033 1.66675 12.0003 1.66675H18.667C19.2137 1.66675 19.667 2.12008 19.667 2.66675C19.667 3.21341 19.2137 3.66675 18.667 3.66675H12.0003C5.85366 3.66675 3.66699 5.85341 3.66699 12.0001V20.0001C3.66699 26.1467 5.85366 28.3334 12.0003 28.3334H20.0003C26.147 28.3334 28.3337 26.1467 28.3337 20.0001V13.3334C28.3337 12.7867 28.787 12.3334 29.3337 12.3334C29.8803 12.3334 30.3337 12.7867 30.3337 13.3334V20.0001C30.3337 27.2401 27.2403 30.3334 20.0003 30.3334Z" fill="white"/>
<path d="M29.3337 14.3334H24.0003C19.4403 14.3334 17.667 12.5601 17.667 8.00007V2.66673C17.667 2.26673 17.907 1.8934 18.2803 1.74673C18.6537 1.58673 19.0803 1.68007 19.3737 1.96007L30.0403 12.6267C30.3203 12.9067 30.4137 13.3467 30.2537 13.7201C30.0937 14.0934 29.7337 14.3334 29.3337 14.3334ZM19.667 5.08007V8.00007C19.667 11.4401 20.5603 12.3334 24.0003 12.3334H26.9203L19.667 5.08007Z" fill="white"/>
<path d="M17.333 18.3333H9.33301C8.78634 18.3333 8.33301 17.8799 8.33301 17.3333C8.33301 16.7866 8.78634 16.3333 9.33301 16.3333H17.333C17.8797 16.3333 18.333 16.7866 18.333 17.3333C18.333 17.8799 17.8797 18.3333 17.333 18.3333Z" fill="white"/>
<path d="M14.6663 23.6667H9.33301C8.78634 23.6667 8.33301 23.2134 8.33301 22.6667C8.33301 22.1201 8.78634 21.6667 9.33301 21.6667H14.6663C15.213 21.6667 15.6663 22.1201 15.6663 22.6667C15.6663 23.2134 15.213 23.6667 14.6663 23.6667Z" fill="white"/>
</svg>
