<svg width="25" height="24" viewBox="0 0 25 24" fill="none" xmlns="http://www.w3.org/2000/svg">
<path d="M15.5 15.5C15.5 19.09 12.59 22 9 22C5.41 22 2.5 19.09 2.5 15.5C2.5 11.91 5.41 9 9 9C9.17 9 9.35 9.01 9.52 9.02C12.69 9.27 15.23 11.81 15.48 14.98C15.49 15.15 15.5 15.33 15.5 15.5Z" fill="#F39E22"/>
<path d="M22.5001 8.5C22.5001 11.76 20.1001 14.45 16.9801 14.92V14.86C16.6701 10.98 13.5201 7.83 9.61008 7.52H9.58008C10.0501 4.4 12.7401 2 16.0001 2C19.5901 2 22.5001 4.91 22.5001 8.5Z" fill="#F39E22"/>
<path d="M6.09 2H3.5C2.95 2 2.5 2.45 2.5 3V5.59C2.5 6.48 3.58 6.93 4.21 6.3L6.8 3.71C7.42 3.08 6.98 2 6.09 2Z" fill="#F39E22"/>
<path d="M18.9102 22H21.5002C22.0502 22 22.5002 21.55 22.5002 21V18.41C22.5002 17.52 21.4202 17.07 20.7902 17.7L18.2002 20.29C17.5802 20.92 18.0202 22 18.9102 22Z" fill="#F39E22"/>
</svg>
