<svg width="64" height="64" viewBox="0 0 64 64" fill="none" xmlns="http://www.w3.org/2000/svg">
<path d="M32 64C49.6731 64 64 49.6731 64 32C64 14.3269 49.6731 0 32 0C14.3269 0 0 14.3269 0 32C0 49.6731 14.3269 64 32 64Z" fill="#1C315C"/>
<path d="M15.9417 41.6976H11.1362V22.0576H19.3669C21.7322 22.0576 23.5281 22.5843 24.7559 23.643C25.9915 24.6953 26.6009 26.3517 26.6009 28.5969C26.6009 30.0636 26.2575 31.2772 25.5629 32.2391C24.8747 33.2009 23.9426 33.7897 22.7845 34.0143L26.9598 41.7054H21.9143L18.4903 34.7309H15.9365V41.6989H15.9417V41.6976ZM15.9417 31.7898H18.3418C19.4999 31.7898 20.3701 31.5096 20.9382 30.948C21.5063 30.3864 21.7942 29.6014 21.7942 28.5969C21.7942 27.5227 21.4856 26.7236 20.8749 26.1968C20.2642 25.67 19.416 25.4041 18.3354 25.4041H15.9352L15.9417 31.7898Z" fill="white"/>
<path d="M52.8643 41.6976H48.0576V22.0576H52.8643V41.6976Z" fill="white"/>
<path d="M39.7624 39.4097C39.7624 37.5441 41.2795 36.0271 43.1451 36.0271C43.5776 36.0271 43.9907 36.1097 44.3703 36.2582C44.6866 35.0123 44.8442 33.5585 44.8442 31.8956C44.8442 28.562 44.2051 26.065 42.9359 24.4021C41.6655 22.7392 39.6385 21.9116 36.8523 21.9116C34.0661 21.9116 32.0391 22.7392 30.7545 24.4021C29.4698 26.0586 28.832 28.5555 28.832 31.8956C28.832 35.2292 29.4711 37.7262 30.7545 39.3891C32.0391 41.052 34.0661 41.8796 36.8523 41.8796C38.1899 41.8796 39.3519 41.6859 40.3408 41.3012C39.9767 40.7602 39.7624 40.1095 39.7624 39.4097ZM36.8523 38.3924C35.7716 38.3924 34.9647 37.8733 34.4315 36.8276C33.9047 35.7818 33.6388 34.1395 33.6388 31.8943C33.6388 29.6349 33.8983 27.9862 34.4315 26.9404C34.9647 25.8946 35.7716 25.3756 36.8523 25.3756C37.9123 25.3756 38.705 25.9023 39.2382 26.9468C39.765 27.9849 40.031 29.6413 40.031 31.9008C40.031 34.146 39.7715 35.7882 39.2524 36.8263C38.7334 37.8733 37.9329 38.3924 36.8523 38.3924Z" fill="white"/>
<path d="M43.1455 42.0912C44.6265 42.0912 45.8271 40.8906 45.8271 39.4096C45.8271 37.9286 44.6265 36.728 43.1455 36.728C41.6645 36.728 40.4639 37.9286 40.4639 39.4096C40.4639 40.8906 41.6645 42.0912 43.1455 42.0912Z" fill="#F69F1D"/>
<path d="M64 32C64 14.3269 49.6731 0 32 0C14.3269 0 0 14.3269 0 32C0 49.6731 14.3269 64 32 64C49.6731 64 64 49.6731 64 32Z" fill="#222E5E"/>
<path d="M31.4548 15.1424L14.1236 19.0554C13.5755 19.1791 13.0858 19.4857 12.735 19.9246C12.3842 20.3636 12.1932 20.9088 12.1934 21.4707V42.5805C12.193 43.1432 12.3846 43.6892 12.7365 44.1284C13.0883 44.5675 13.5795 44.8735 14.1287 44.9959L31.433 48.8589C31.7879 48.9383 32.1559 48.9383 32.5108 48.8589L49.865 44.9907C50.4144 44.8694 50.9061 44.5646 51.259 44.1265C51.612 43.6884 51.8052 43.1431 51.8068 42.5805V21.4707C51.8069 20.9088 51.6159 20.3636 51.2651 19.9246C50.9143 19.4857 50.4246 19.1791 49.8765 19.0554L32.5454 15.1424C32.1863 15.0617 31.8138 15.0617 31.4548 15.1424Z" fill="white"/>
<path d="M31.2204 40.7514H16.8665V23.3907H31.2204V25.6154H21.9609V30.8864H30.3692V33.097H21.9609V38.5267H31.2165L31.2204 40.7514Z" fill="#222E5E"/>
<path d="M48.3506 23.3907L38.6969 38.5267H47.6223V40.7514H31.4329L41.1391 25.6154H32.805V23.3907H48.3506Z" fill="#222E5E"/>
</svg>
