<svg width="20" height="20" viewBox="0 0 20 20" fill="none" xmlns="http://www.w3.org/2000/svg">
<rect width="20" height="20" rx="10" fill="#FEF5E9"/>
<path d="M9.99996 12.165C8.80496 12.165 7.83496 11.195 7.83496 9.99996C7.83496 8.80496 8.80496 7.83496 9.99996 7.83496C11.195 7.83496 12.165 8.80496 12.165 9.99996C12.165 11.195 11.195 12.165 9.99996 12.165ZM9.99996 8.58496C9.21996 8.58496 8.58496 9.21996 8.58496 9.99996C8.58496 10.78 9.21996 11.415 9.99996 11.415C10.78 11.415 11.415 10.78 11.415 9.99996C11.415 9.21996 10.78 8.58496 9.99996 8.58496Z" fill="#F39E22"/>
<path d="M10 14.51C8.12004 14.51 6.34504 13.41 5.12504 11.5C4.59504 10.675 4.59504 9.32999 5.12504 8.49999C6.35004 6.58999 8.12504 5.48999 10 5.48999C11.875 5.48999 13.65 6.58999 14.87 8.49999C15.4 9.32499 15.4 10.67 14.87 11.5C13.65 13.41 11.875 14.51 10 14.51ZM10 6.23999C8.38504 6.23999 6.84004 7.20999 5.76004 8.90499C5.38504 9.48999 5.38504 10.51 5.76004 11.095C6.84004 12.79 8.38504 13.76 10 13.76C11.615 13.76 13.16 12.79 14.24 11.095C14.615 10.51 14.615 9.48999 14.24 8.90499C13.16 7.20999 11.615 6.23999 10 6.23999Z" fill="#F39E22"/>
</svg>
