<svg width="32" height="32" viewBox="0 0 32 32" fill="none" xmlns="http://www.w3.org/2000/svg">
<path d="M10.5866 20.3467C10.4666 20.3467 10.36 20.3333 10.24 20.28C9.15997 19.88 8.2533 19.0933 7.67997 18.0666C6.34663 15.6666 7.17331 12.5333 9.50665 11.08L12.6266 9.14663C13.7733 8.43996 15.12 8.22667 16.4 8.56C17.68 8.89333 18.76 9.73331 19.4133 10.9066C20.7466 13.3066 19.92 16.44 17.5866 17.8933L17.24 18.1466C16.7866 18.4666 16.16 18.36 15.84 17.92C15.52 17.4667 15.6266 16.84 16.0666 16.52L16.48 16.2267C17.9733 15.2933 18.48 13.36 17.6666 11.88C17.28 11.1867 16.6533 10.6933 15.9066 10.4933C15.16 10.2933 14.3733 10.4267 13.6933 10.84L10.5733 12.7733C9.1333 13.6666 8.62664 15.6 9.43998 17.0933C9.77331 17.6933 10.3067 18.16 10.9467 18.4C11.4667 18.5866 11.7333 19.16 11.5333 19.68C11.3866 20.0933 11 20.3467 10.5866 20.3467Z" fill="white"/>
<path d="M16.8796 23.5333C16.4796 23.5333 16.0663 23.48 15.6663 23.3733C14.3863 23.04 13.3063 22.2 12.6663 21.0266C11.333 18.6266 12.1596 15.4933 14.493 14.04L14.8396 13.7866C15.293 13.4666 15.9196 13.5733 16.2396 14.0133C16.5596 14.4667 16.453 15.0933 16.013 15.4133L15.5996 15.7067C14.1063 16.64 13.5996 18.5733 14.413 20.0533C14.7996 20.7467 15.4263 21.24 16.173 21.44C16.9196 21.64 17.7063 21.5067 18.3863 21.0933L21.5063 19.16C22.9463 18.2666 23.453 16.3333 22.6396 14.84C22.3063 14.24 21.773 13.7733 21.133 13.5333C20.613 13.3466 20.3463 12.7733 20.5463 12.2533C20.733 11.7333 21.3063 11.4667 21.8263 11.6667C22.9063 12.0667 23.813 12.8533 24.3863 13.88C25.7196 16.28 24.893 19.4133 22.5596 20.8666L19.4396 22.8C18.653 23.28 17.773 23.5333 16.8796 23.5333Z" fill="white"/>
<path d="M16.0003 30.3334C8.09366 30.3334 1.66699 23.9067 1.66699 16.0001C1.66699 8.09342 8.09366 1.66675 16.0003 1.66675C23.907 1.66675 30.3337 8.09342 30.3337 16.0001C30.3337 23.9067 23.907 30.3334 16.0003 30.3334ZM16.0003 3.66675C9.20033 3.66675 3.66699 9.20008 3.66699 16.0001C3.66699 22.8001 9.20033 28.3334 16.0003 28.3334C22.8003 28.3334 28.3337 22.8001 28.3337 16.0001C28.3337 9.20008 22.8003 3.66675 16.0003 3.66675Z" fill="white"/>
</svg>
