<svg width="35" height="35" viewBox="0 0 35 35" fill="none" xmlns="http://www.w3.org/2000/svg">
<circle cx="17.3656" cy="17.3655" r="16.8842" fill="#EF6825"/>
<path d="M17.6465 10.9796C17.6465 10.5194 17.2734 10.1463 16.8132 10.1463C16.3529 10.1463 15.9798 10.5194 15.9798 10.9796V15.9796H10.9798C10.5196 15.9796 10.1465 16.3527 10.1465 16.8129C10.1465 17.2732 10.5196 17.6463 10.9798 17.6463H15.9798V22.6463C15.9798 23.1065 16.3529 23.4796 16.8132 23.4796C17.2734 23.4796 17.6465 23.1065 17.6465 22.6463V17.6463H22.6465C23.1067 17.6463 23.4798 17.2732 23.4798 16.8129C23.4798 16.3527 23.1067 15.9796 22.6465 15.9796H17.6465V10.9796Z" fill="white"/>
</svg>
