<svg width="32" height="32" viewBox="0 0 32 32" fill="none" xmlns="http://www.w3.org/2000/svg">
<path d="M16 32C24.8366 32 32 24.8366 32 16C32 7.16344 24.8366 0 16 0C7.16344 0 0 7.16344 0 16C0 24.8366 7.16344 32 16 32Z" fill="#1C315C"/>
<path d="M7.97084 20.8488H5.56812V11.0287H9.68347C10.8661 11.0287 11.7641 11.2921 12.378 11.8215C12.9958 12.3476 13.3005 13.1758 13.3005 14.2984C13.3005 15.0318 13.1287 15.6386 12.7814 16.1195C12.4374 16.6004 11.9713 16.8948 11.3922 17.0071L13.4799 20.8526H10.9571L9.24514 17.3654H7.96825V20.8494H7.97084V20.8488ZM7.97084 15.8949H9.1709C9.74996 15.8949 10.1851 15.7548 10.4691 15.474C10.7531 15.1932 10.8971 14.8007 10.8971 14.2984C10.8971 13.7613 10.7428 13.3617 10.4375 13.0984C10.1321 12.835 9.708 12.702 9.16768 12.702H7.96761L7.97084 15.8949Z" fill="white"/>
<path d="M26.4322 20.8488H24.0288V11.0287H26.4322V20.8488Z" fill="white"/>
<path d="M19.8812 19.7049C19.8812 18.772 20.6397 18.0135 21.5725 18.0135C21.7888 18.0135 21.9954 18.0548 22.1852 18.1291C22.3433 17.5061 22.4221 16.7792 22.4221 15.9478C22.4221 14.281 22.1025 13.0325 21.468 12.201C20.8327 11.3696 19.8192 10.9558 18.4261 10.9558C17.0331 10.9558 16.0196 11.3696 15.3772 12.201C14.7349 13.0293 14.416 14.2778 14.416 15.9478C14.416 17.6146 14.7356 18.8631 15.3772 19.6945C16.0196 20.526 17.0331 20.9398 18.4261 20.9398C19.0949 20.9398 19.6759 20.8429 20.1704 20.6506C19.9884 20.3801 19.8812 20.0547 19.8812 19.7049ZM18.4261 19.1962C17.8858 19.1962 17.4824 18.9367 17.2157 18.4138C16.9524 17.8909 16.8194 17.0697 16.8194 15.9471C16.8194 14.8174 16.9491 13.9931 17.2157 13.4702C17.4824 12.9473 17.8858 12.6878 18.4261 12.6878C18.9561 12.6878 19.3525 12.9512 19.6191 13.4734C19.8825 13.9924 20.0155 14.8207 20.0155 15.9504C20.0155 17.073 19.8857 17.8941 19.6262 18.4131C19.3667 18.9367 18.9665 19.1962 18.4261 19.1962Z" fill="white"/>
<path d="M21.5727 21.0455C22.3132 21.0455 22.9135 20.4453 22.9135 19.7048C22.9135 18.9642 22.3132 18.364 21.5727 18.364C20.8322 18.364 20.2319 18.9642 20.2319 19.7048C20.2319 20.4453 20.8322 21.0455 21.5727 21.0455Z" fill="#F69F1D"/>
</svg>
