<svg width="25" height="24" viewBox="0 0 25 24" fill="none" xmlns="http://www.w3.org/2000/svg">
<path d="M18.1133 11.2C17.9233 11.2 17.7332 11.13 17.5832 10.98C17.2932 10.69 17.2932 10.21 17.5832 9.91995L20.7732 6.72995L17.5832 3.53995C17.2932 3.24995 17.2932 2.76995 17.5832 2.47995C17.8732 2.18995 18.3532 2.18995 18.6432 2.47995L22.3633 6.19998C22.5033 6.33998 22.5832 6.52995 22.5832 6.72995C22.5832 6.92995 22.5033 7.11998 22.3633 7.25998L18.6432 10.98C18.4932 11.12 18.3033 11.2 18.1133 11.2Z" fill="#9EA1A9"/>
<path d="M21.8335 7.47998H3.8335C3.4235 7.47998 3.0835 7.13998 3.0835 6.72998C3.0835 6.31998 3.4235 5.97998 3.8335 5.97998H21.8335C22.2435 5.97998 22.5835 6.31998 22.5835 6.72998C22.5835 7.13998 22.2435 7.47998 21.8335 7.47998Z" fill="#9EA1A9"/>
<path d="M7.55347 21.75C7.36347 21.75 7.1735 21.68 7.0235 21.53L3.30347 17.81C3.16347 17.67 3.0835 17.48 3.0835 17.28C3.0835 17.08 3.16347 16.89 3.30347 16.75L7.0235 13.03C7.3135 12.74 7.7935 12.74 8.0835 13.03C8.3735 13.32 8.3735 13.8 8.0835 14.09L4.89349 17.28L8.0835 20.4699C8.3735 20.7599 8.3735 21.24 8.0835 21.53C7.9435 21.68 7.75347 21.75 7.55347 21.75Z" fill="#9EA1A9"/>
<path d="M21.8335 18.02H3.8335C3.4235 18.02 3.0835 17.68 3.0835 17.27C3.0835 16.86 3.4235 16.52 3.8335 16.52H21.8335C22.2435 16.52 22.5835 16.86 22.5835 17.27C22.5835 17.68 22.2435 18.02 21.8335 18.02Z" fill="#9EA1A9"/>
</svg>
