<svg width="56" height="56" viewBox="0 0 56 56" fill="none" xmlns="http://www.w3.org/2000/svg">
<path d="M28.0001 53.0832C14.1634 53.0832 2.91675 41.8365 2.91675 27.9998C2.91675 14.1632 14.1634 2.9165 28.0001 2.9165C41.8368 2.9165 53.0834 14.1632 53.0834 27.9998C53.0834 41.8365 41.8368 53.0832 28.0001 53.0832ZM28.0001 6.4165C16.1001 6.4165 6.41675 16.0998 6.41675 27.9998C6.41675 39.8998 16.1001 49.5832 28.0001 49.5832C39.9001 49.5832 49.5834 39.8998 49.5834 27.9998C49.5834 16.0998 39.9001 6.4165 28.0001 6.4165Z" fill="#1C315C"/>
<path d="M28.0001 36.4702C24.9201 36.4702 22.4001 33.9502 22.4001 30.8702V25.1069C22.4001 22.0269 24.9201 19.5068 28.0001 19.5068C31.0801 19.5068 33.6001 22.0269 33.6001 25.1069V30.8702C33.6001 33.9735 31.0801 36.4702 28.0001 36.4702ZM28.0001 23.0302C26.8568 23.0302 25.9001 23.9636 25.9001 25.1302V30.8935C25.9001 32.0602 26.8335 32.9936 28.0001 32.9936C29.1668 32.9936 30.1001 32.0602 30.1001 30.8935V25.1302C30.1001 23.9636 29.1435 23.0302 28.0001 23.0302Z" fill="#1C315C"/>
<path d="M27.9999 43.9131C20.6033 43.9131 14.5833 37.8931 14.5833 30.4965V25.5031C14.5833 18.1064 20.6033 12.0864 27.9999 12.0864C34.9066 12.0864 40.6466 17.2665 41.3466 24.1265C41.4399 25.0832 40.7399 25.9464 39.7833 26.0397C38.8266 26.1564 37.9632 25.4331 37.8699 24.4764C37.3566 19.4131 33.1099 15.5864 27.9999 15.5864C22.5399 15.5864 18.0833 20.0431 18.0833 25.5031V30.4965C18.0833 35.9565 22.5399 40.4131 27.9999 40.4131C33.1333 40.4131 37.4733 36.3997 37.8933 31.2897C37.9633 30.333 38.8033 29.6097 39.7833 29.6797C40.7399 29.7497 41.4633 30.5898 41.3933 31.5698C40.8333 38.4998 34.9533 43.9131 27.9999 43.9131Z" fill="#1C315C"/>
</svg>
