<svg width="40" height="40" viewBox="0 0 40 40" fill="none" xmlns="http://www.w3.org/2000/svg">
    <circle cx="20" cy="20" r="20" fill="#E7E8E9" />
    <path
        d="M17.7515 24.5263V23.6316C17.7515 22.7895 17.9206 22.0789 18.2587 21.5C18.6146 20.9211 19.0418 20.4123 19.54 19.9737C20.0561 19.5175 20.5722 19.0877 21.0883 18.6842C21.6044 18.2807 22.0315 17.8421 22.3696 17.3684C22.7255 16.8947 22.9035 16.3333 22.9035 15.6842C22.9035 14.7368 22.5565 14 21.8624 13.4737C21.1862 12.9474 20.3854 12.6842 19.46 12.6842C18.8727 12.6842 18.3121 12.8158 17.7782 13.0789C17.2444 13.3421 16.8083 13.7456 16.4702 14.2895C16.1321 14.8158 15.963 15.4912 15.963 16.3158H13C13 14.8947 13.3114 13.7193 13.9343 12.7895C14.5749 11.8421 15.3936 11.1404 16.3901 10.6842C17.4045 10.2281 18.4634 10 19.5667 10C20.7235 10 21.7823 10.2281 22.7433 10.6842C23.7221 11.1228 24.5051 11.7632 25.0924 12.6053C25.6975 13.4474 26 14.4474 26 15.6053C26 16.5175 25.822 17.2982 25.4661 17.9474C25.1102 18.5789 24.6742 19.1316 24.1581 19.6053C23.642 20.0789 23.1259 20.5263 22.6099 20.9474C22.0938 21.3509 21.6578 21.7632 21.3018 22.1842C20.9637 22.6053 20.7947 23.0877 20.7947 23.6316V24.5263H17.7515ZM19.2998 30C18.7659 30 18.3299 29.8246 17.9918 29.4737C17.6537 29.1053 17.4846 28.6842 17.4846 28.2105C17.4846 27.7018 17.6537 27.2719 17.9918 26.9211C18.3299 26.5702 18.7659 26.3947 19.2998 26.3947C19.8159 26.3947 20.243 26.5702 20.5811 26.9211C20.937 27.2719 21.115 27.7018 21.115 28.2105C21.115 28.7018 20.937 29.1228 20.5811 29.4737C20.243 29.8246 19.8159 30 19.2998 30Z"
        fill="#9EA1A9" />
</svg>
