<svg width="24" height="24" viewBox="0 0 24 24" fill="none" xmlns="http://www.w3.org/2000/svg">
<path d="M15.8101 20.18C15.5501 20.18 15.2801 20.17 14.9901 20.14C14.4701 20.1 13.8801 20 13.2701 19.85L11.5901 19.45C6.98007 18.36 5.47007 15.92 6.55007 11.32L7.53007 7.13C7.75007 6.18 8.01007 5.41 8.33007 4.77C10.0501 1.22 13.3401 1.54 15.6801 2.09L17.3501 2.48C19.6901 3.03 21.1701 3.9 22.0001 5.23C22.8201 6.56 22.9501 8.27 22.4001 10.61L21.4201 14.79C20.5601 18.45 18.7701 20.18 15.8101 20.18ZM13.1201 3.25C11.4501 3.25 10.3901 3.94 9.68007 5.42C9.42007 5.96 9.19007 6.63 8.99007 7.47L8.01007 11.66C7.12007 15.44 8.15007 17.09 11.9301 17.99L13.6101 18.39C14.1501 18.52 14.6601 18.6 15.1201 18.64C17.8401 18.91 19.1901 17.72 19.9501 14.45L20.9301 10.27C21.3801 8.34 21.3201 6.99 20.7201 6.02C20.1201 5.05 18.9401 4.39 17.0001 3.94L15.3301 3.55C14.5001 3.35 13.7601 3.25 13.1201 3.25Z" fill="#0C1527"/>
<path d="M8.33005 22.25C5.76005 22.25 4.12005 20.71 3.07005 17.46L1.79005 13.51C0.370052 9.11 1.64005 6.63 6.02005 5.21L7.60005 4.7C8.12005 4.54 8.51005 4.43 8.86005 4.37C9.15005 4.31 9.43005 4.42 9.60005 4.65C9.77005 4.88 9.80005 5.18 9.68005 5.44C9.42005 5.97 9.19005 6.64 9.00005 7.48L8.02005 11.67C7.13005 15.45 8.16005 17.1 11.9401 18L13.6201 18.4C14.1601 18.53 14.6701 18.61 15.1301 18.65C15.4501 18.68 15.7101 18.9 15.8001 19.21C15.8801 19.52 15.7601 19.84 15.5001 20.02C14.8401 20.47 14.0101 20.85 12.9601 21.19L11.3801 21.71C10.2301 22.07 9.23005 22.25 8.33005 22.25ZM7.78005 6.22L6.49005 6.64C2.92005 7.79 2.07005 9.47 3.22005 13.05L4.50005 17C5.66005 20.57 7.34005 21.43 10.9101 20.28L12.4901 19.76C12.5501 19.74 12.6001 19.72 12.6601 19.7L11.6001 19.45C6.99005 18.36 5.48005 15.92 6.56005 11.32L7.54005 7.13C7.61005 6.81 7.69005 6.5 7.78005 6.22Z" fill="#0C1527"/>
<path d="M17.4901 10.51C17.4301 10.51 17.3701 10.5 17.3001 10.49L12.4501 9.26C12.0501 9.16 11.8101 8.75 11.9101 8.35C12.0101 7.95 12.4201 7.71 12.8201 7.81L17.6701 9.04C18.0701 9.14 18.3101 9.55 18.2101 9.95C18.1301 10.28 17.8201 10.51 17.4901 10.51Z" fill="#0C1527"/>
<path d="M14.5599 13.89C14.4999 13.89 14.4399 13.88 14.3699 13.87L11.4599 13.13C11.0599 13.03 10.8199 12.62 10.9199 12.22C11.0199 11.82 11.4299 11.58 11.8299 11.68L14.7399 12.42C15.1399 12.52 15.3799 12.93 15.2799 13.33C15.1999 13.67 14.8999 13.89 14.5599 13.89Z" fill="#292D32"/>
</svg>
